<svg width="28" height="28" viewBox="0 0 28 28" fill="none" xmlns="http://www.w3.org/2000/svg">
<g clip-path="url(#clip0_1_45)">
<path d="M4.74717 15.1667H0V12.8333H4.74717C4.69933 13.216 4.66667 13.6045 4.66667 14C4.66667 14.3955 4.69933 14.784 4.74717 15.1667ZM8.28683 6.636L4.92567 3.27483L3.276 4.9245L6.63717 8.28567C7.11667 7.6685 7.66967 7.1155 8.28683 6.636ZM21.364 8.28567L24.7252 4.9245L23.0755 3.27483L19.7143 6.636C20.3303 7.1155 20.8833 7.66967 21.364 8.28567ZM14 4.66667C14.3955 4.66667 14.784 4.69933 15.1667 4.74717V0H12.8333V4.74717C13.216 4.69933 13.6045 4.66667 14 4.66667ZM14 23.3333C13.6045 23.3333 13.216 23.3007 12.8333 23.2528V28H15.1667V23.2528C14.784 23.3007 14.3955 23.3333 14 23.3333ZM23.2528 12.8333C23.3007 13.216 23.3333 13.6045 23.3333 14C23.3333 14.3955 23.3007 14.784 23.2528 15.1667H28V12.8333H23.2528ZM19.7143 21.364L23.0743 24.724L24.7252 23.0743L21.3652 19.7143C20.8845 20.3303 20.3315 20.8833 19.7143 21.364ZM6.636 19.7132L3.276 23.0732L4.92567 24.7228L8.28567 21.3628C7.66967 20.8833 7.1155 20.3303 6.636 19.7132ZM9.33333 14C9.33333 16.5737 11.4263 18.6667 14 18.6667C16.5737 18.6667 18.6667 16.5737 18.6667 14C18.6667 11.4263 16.5737 9.33333 14 9.33333C11.4263 9.33333 9.33333 11.4263 9.33333 14ZM21 14C21 17.8663 17.8663 21 14 21C10.1337 21 7 17.8663 7 14C7 10.1337 10.1337 7 14 7C17.8663 7 21 10.1337 21 14Z" fill="#E37937"/>
</g>
<defs>
<clipPath id="clip0_1_45">
<rect width="28" height="28" fill="white"/>
</clipPath>
</defs>
</svg>
