<svg width="26" height="26" viewBox="0 0 26 26" fill="none" xmlns="http://www.w3.org/2000/svg">
<path d="M12.2655 3.16658C12.402 2.886 12.688 2.70833 13 2.70833C13.3131 2.70833 13.598 2.886 13.7345 3.16658C14.7897 5.33108 16.6053 9.05991 16.6053 9.05991C16.6053 9.05991 20.7339 9.62758 23.1292 9.958C23.5658 10.0176 23.8333 10.387 23.8333 10.7672C23.8333 10.9731 23.7553 11.1822 23.5831 11.3479C21.8389 13.0141 18.8359 15.8882 18.8359 15.8882C18.8359 15.8882 19.5693 19.9691 19.994 22.3362C20.0839 22.8367 19.6961 23.2917 19.1902 23.2917C19.058 23.2917 18.9258 23.2602 18.8056 23.1952C16.6736 22.0599 13 20.1067 13 20.1067C13 20.1067 9.32642 22.0599 7.19442 23.1952C7.07417 23.2602 6.94092 23.2917 6.80875 23.2917C6.305 23.2917 5.915 22.8356 6.00601 22.3362C6.43176 19.9691 7.16517 15.8882 7.16517 15.8882C7.16517 15.8882 4.16109 13.0141 2.41801 11.3479C2.24467 11.1822 2.16667 10.9731 2.16667 10.7683C2.16667 10.387 2.43642 10.0165 2.87192 9.958C5.26717 9.62758 9.39467 9.05991 9.39467 9.05991C9.39467 9.05991 11.2114 5.33108 12.2655 3.16658ZM13 5.36899L10.4423 10.5603L4.75909 11.3392L8.92775 15.2858L7.90075 20.9787L13 18.265L18.0993 20.9787L17.069 15.3064L21.2409 11.3392L15.4841 10.5202L13 5.36899Z" fill="#E37937"/>
</svg>
