<svg width="24" height="24" viewBox="0 0 24 24" fill="none" xmlns="http://www.w3.org/2000/svg">
<g clip-path="url(#clip0_1_78)">
<path d="M6.665 9.068L3 7.408V21.408L6.665 24L21 21.845V7L6.665 9.068ZM5 10.509L6 10.962V21.08L5 20.373V10.509ZM19 20.124L8 21.777V10.896L19 9.309V20.124ZM17 4.291L16.999 6.04C16.999 6.286 16.819 6.495 16.576 6.532C16.273 6.577 16 6.342 16 6.037V4.291C16.001 3.6 15.769 2.987 15.347 2.565C14.979 2.195 14.5 2 13.963 2C12.416 2 11.003 3.558 11 5.268V6.949C11 7.196 10.819 7.406 10.575 7.443C10.273 7.489 10 7.254 10 6.949L10.001 5.266C10.005 3.005 11.867 1 13.963 1C15.68 1 17.002 2.387 17 4.291ZM7.001 6.5V4.265C7.005 2.005 8.867 0 10.963 0C11.455 0 11.907 0.125 12.313 0.332C11.89 0.502 11.491 0.732 11.125 1.015L10.963 1C9.416 1 8.002 2.558 8 4.268V6.5C8 6.748 7.818 6.958 7.573 6.994C7.273 7.039 7.001 6.807 7.001 6.5Z" fill="#E37937"/>
</g>
<defs>
<clipPath id="clip0_1_78">
<rect width="24" height="24" fill="white"/>
</clipPath>
</defs>
</svg>
