<svg width="24" height="24" viewBox="0 0 24 24" fill="none" xmlns="http://www.w3.org/2000/svg">
<path d="M22 14.236V17.764L20 16.764V15.236L22 14.236ZM24 11L18 14V18L24 21V11ZM14 13V18.5C14 18.776 13.776 19 13.5 19H4.5C4.224 19 4 18.776 4 18.5V13C3.298 13 2.627 12.873 2 12.65V19C2 20.104 2.896 21 4 21H14C15.104 21 16 20.104 16 19V12.65C15.373 12.873 14.702 13 14 13ZM14 5C15.103 5 16 5.897 16 7C16 8.103 15.103 9 14 9C12.897 9 12 8.103 12 7C12 5.897 12.897 5 14 5ZM4 5C5.103 5 6 5.897 6 7C6 8.103 5.103 9 4 9C2.897 9 2 8.103 2 7C2 5.897 2.897 5 4 5ZM14 3C11.791 3 10 4.791 10 7C10 9.209 11.791 11 14 11C16.209 11 18 9.209 18 7C18 4.791 16.209 3 14 3ZM4 3C1.791 3 0 4.791 0 7C0 9.209 1.791 11 4 11C6.209 11 8 9.209 8 7C8 4.791 6.209 3 4 3Z" fill="#E37937"/>
</svg>
