<svg width="44" height="44" viewBox="0 0 44 44" fill="none" xmlns="http://www.w3.org/2000/svg">
<path d="M20.625 11C21.3547 11 22 11.6453 22 12.375C22 13.134 21.384 13.75 20.625 13.75C17.8658 13.75 6.41667 13.75 6.41667 13.75V35.75H37.5833V19.7102C37.5833 18.9512 38.1993 18.3352 38.9583 18.3352C39.7173 18.3352 40.3333 18.9512 40.3333 19.7102V36.6667C40.3333 37.8052 39.3763 38.5 38.5 38.5H5.50001C4.62001 38.5 3.66667 37.8052 3.66667 36.6667V12.8333C3.66667 11.9515 4.36334 11 5.50001 11H20.625ZM23.4135 28.7632L39.9355 12.2412C40.1793 11.9973 40.3333 11.638 40.3333 11.2658C40.3333 10.9377 40.2142 10.6003 39.9337 10.3217L35.4915 5.89417C35.2293 5.632 34.881 5.5 34.5345 5.5C34.188 5.5 33.8415 5.632 33.5757 5.89417L17.0262 22.3868C16.2158 24.9003 14.9032 28.9612 14.7088 29.6322C14.4778 30.426 15.0718 31.1612 15.7575 31.1612C16.5092 31.1612 17.0335 30.9797 23.4135 28.7632ZM19.2738 24.3778L21.4188 26.5247C20.1282 26.95 19.0832 27.291 18.249 27.5623L19.2738 24.3778ZM21.0485 22.2622L34.5345 8.822L37.004 11.2823L23.5363 24.7518L21.0485 22.2622Z" fill="white"/>
</svg>
