<svg width="30" height="36" viewBox="0 0 30 36" fill="none" xmlns="http://www.w3.org/2000/svg">
<path fill-rule="evenodd" clip-rule="evenodd" d="M3.75 9H26.25C26.871 9 27.375 8.49712 27.375 7.875C27.375 7.254 26.871 6.75 26.25 6.75H3.75C3.129 6.75 2.625 7.254 2.625 7.875C2.625 8.49712 3.129 9 3.75 9ZM4.875 31.5C4.875 32.742 5.883 33.75 7.125 33.75H22.875C24.117 33.75 25.125 32.742 25.125 31.5V11.25H4.875V31.5ZM18.375 3.375C18.375 2.75288 17.871 2.25 17.25 2.25H12.75C12.129 2.25 11.625 2.75288 11.625 3.375V4.5H18.375V3.375ZM2.625 4.5H9.375V2.25C9.375 1.008 10.383 0 11.625 0H18.375C19.617 0 20.625 1.008 20.625 2.25V4.5H27.375C28.617 4.5 29.625 5.508 29.625 6.75V9C29.625 10.242 28.617 11.25 27.375 11.25V31.5C27.375 33.9851 25.3601 36 22.875 36H7.125C4.63987 36 2.625 33.9851 2.625 31.5V11.25C1.383 11.25 0.375 10.242 0.375 9V6.75C0.375 5.508 1.383 4.5 2.625 4.5ZM15 31.5C14.379 31.5 13.875 30.9971 13.875 30.375V16.875C13.875 16.254 14.379 15.75 15 15.75C15.621 15.75 16.125 16.254 16.125 16.875V30.375C16.125 30.9971 15.621 31.5 15 31.5ZM20.625 31.5C20.004 31.5 19.5 30.9971 19.5 30.375V16.875C19.5 16.254 20.004 15.75 20.625 15.75C21.246 15.75 21.75 16.254 21.75 16.875V30.375C21.75 30.9971 21.246 31.5 20.625 31.5ZM9.375 31.5C8.754 31.5 8.25 30.9971 8.25 30.375V16.875C8.25 16.254 8.754 15.75 9.375 15.75C9.996 15.75 10.5 16.254 10.5 16.875V30.375C10.5 30.9971 9.996 31.5 9.375 31.5Z" fill="#E37937"/>
</svg>
