<svg width="144" height="144" viewBox="0 0 144 144" fill="none" xmlns="http://www.w3.org/2000/svg">
<rect width="144" height="144" fill="white"/>
<mask id="mask0_113_49" style="mask-type:luminance" maskUnits="userSpaceOnUse" x="89" y="69" width="28" height="12">
<path d="M116.053 69.1765H89.7632V80.4706H116.053V69.1765Z" fill="white"/>
<path d="M97.3353 79.7647L96.7384 77.8871H93.4274L92.8305 79.7647H91.1395L94.3653 70.1647H95.8716L99.1116 79.7647H97.3353ZM94.351 74.9506L93.9105 76.3341H96.241L95.8005 74.9506L95.09 72.5224L94.351 74.9506ZM100.726 79.7647V70.1647H103.909C104.923 70.1647 105.68 70.4188 106.183 70.9271C106.694 71.4353 106.95 72.1129 106.95 72.96V73.7082C106.95 74.5553 106.694 75.2377 106.183 75.7553C105.68 76.2635 104.923 76.5176 103.909 76.5176H102.431V79.7647H100.726ZM103.909 71.7882H102.431V74.8941H103.909C104.326 74.8941 104.643 74.7906 104.861 74.5835C105.089 74.3765 105.202 74.0847 105.202 73.7082V72.96C105.202 72.5929 105.089 72.3059 104.861 72.0988C104.643 71.8918 104.326 71.7882 103.909 71.7882ZM108.886 79.7647V70.1647H112.069C113.083 70.1647 113.841 70.4188 114.342 70.9271C114.854 71.4353 115.11 72.1129 115.11 72.96V73.7082C115.11 74.5553 114.854 75.2377 114.342 75.7553C113.841 76.2635 113.083 76.5176 112.069 76.5176H110.591V79.7647H108.886ZM112.069 71.7882H110.591V74.8941H112.069C112.486 74.8941 112.803 74.7906 113.021 74.5835C113.248 74.3765 113.362 74.0847 113.362 73.7082V72.96C113.362 72.5929 113.248 72.3059 113.021 72.0988C112.803 71.8918 112.486 71.7882 112.069 71.7882Z" fill="black"/>
</mask>
<g mask="url(#mask0_113_49)">
<path d="M97.3353 79.7647L96.6581 79.9772L96.8144 80.4706H97.3353V79.7647ZM96.7384 77.8871L97.4163 77.6745L97.2592 77.1812H96.7384V77.8871ZM93.4274 77.8871V77.1812H92.9065L92.7502 77.6745L93.4274 77.8871ZM92.8305 79.7647V80.4706H93.3513L93.5084 79.9772L92.8305 79.7647ZM91.1395 79.7647L90.4659 79.5412L90.1533 80.4706H91.1395V79.7647ZM94.3653 70.1647V69.4588H93.8537L93.6917 69.9412L94.3653 70.1647ZM95.8716 70.1647L96.5451 69.9403L96.3832 69.4588H95.8716V70.1647ZM99.1116 79.7647V80.4706H100.099L99.7852 79.5403L99.1116 79.7647ZM94.351 74.9506L95.0289 75.1635L95.031 75.1549L94.351 74.9506ZM93.9105 76.3341L93.2334 76.1212L92.9407 77.04H93.9105V76.3341ZM96.241 76.3341V77.04H97.2109L96.9189 76.1212L96.241 76.3341ZM95.8005 74.9506L95.1184 75.1476L95.1205 75.1556L95.1234 75.1635L95.8005 74.9506ZM95.09 72.5223L95.7721 72.3253L95.1035 70.0393L94.41 72.3181L95.09 72.5223ZM98.0131 79.5522L97.4163 77.6745L96.0613 78.0996L96.6581 79.9772L98.0131 79.5522ZM96.7384 77.1812H93.4274V78.5929H96.7384V77.1812ZM92.7502 77.6745L92.1534 79.5522L93.5084 79.9772L94.1052 78.0996L92.7502 77.6745ZM92.8305 79.0588H91.1395V80.4706H92.8305V79.0588ZM91.8138 79.9882L95.0395 70.3882L93.6917 69.9412L90.4659 79.5412L91.8138 79.9882ZM94.3653 70.8706H95.8716V69.4588H94.3653V70.8706ZM95.198 70.3891L98.438 79.9891L99.7852 79.5403L96.5451 69.9403L95.198 70.3891ZM99.1116 79.0588H97.3353V80.4706H99.1116V79.0588ZM93.6739 74.7377L93.2334 76.1212L94.5884 76.547L95.0289 75.1635L93.6739 74.7377ZM93.9105 77.04H96.241V75.6282H93.9105V77.04ZM96.9189 76.1212L96.4784 74.7377L95.1234 75.1635L95.5639 76.547L96.9189 76.1212ZM96.4826 74.7536L95.7721 72.3253L94.4079 72.7194L95.1184 75.1476L96.4826 74.7536ZM94.41 72.3181L93.6711 74.7463L95.031 75.1549L95.77 72.7266L94.41 72.3181ZM100.726 79.7647H100.015V80.4706H100.726V79.7647ZM100.726 70.1647V69.4588H100.015V70.1647H100.726ZM106.183 70.9271L105.675 71.4215L105.68 71.4262L106.183 70.9271ZM102.431 76.5176V75.8118H101.721V76.5176H102.431ZM102.431 79.7647V80.4706H103.142V79.7647H102.431ZM102.431 71.7882V71.0823H101.721V71.7882H102.431ZM102.431 74.8941H101.721V75.6H102.431V74.8941ZM104.861 74.5835L104.381 74.0631L104.375 74.0682L104.37 74.0735L104.861 74.5835ZM104.861 72.0988L104.37 72.6089L104.375 72.6141L104.381 72.6192L104.861 72.0988ZM101.436 79.7647V70.1647H100.015V79.7647H101.436ZM100.726 70.8706H103.909V69.4588H100.726V70.8706ZM103.909 70.8706C104.812 70.8706 105.354 71.0963 105.675 71.4215L106.69 70.4326C106.007 69.7413 105.033 69.4588 103.909 69.4588V70.8706ZM105.68 71.4262C106.035 71.7786 106.24 72.2642 106.24 72.96H107.661C107.661 71.9617 107.354 71.0919 106.685 70.4279L105.68 71.4262ZM106.24 72.96V73.7082H107.661V72.96H106.24ZM106.24 73.7082C106.24 74.4037 106.035 74.8971 105.675 75.2607L106.689 76.2498C107.354 75.5781 107.661 74.7069 107.661 73.7082H106.24ZM105.675 75.2607C105.354 75.5859 104.812 75.8118 103.909 75.8118V77.2235C105.033 77.2235 106.007 76.941 106.69 76.2498L105.675 75.2607ZM103.909 75.8118H102.431V77.2235H103.909V75.8118ZM101.721 76.5176V79.7647H103.142V76.5176H101.721ZM102.431 79.0588H100.726V80.4706H102.431V79.0588ZM103.909 71.0823H102.431V72.4941H103.909V71.0823ZM101.721 71.7882V74.8941H103.142V71.7882H101.721ZM102.431 75.6H103.909V74.1882H102.431V75.6ZM103.909 75.6C104.438 75.6 104.958 75.4678 105.352 75.0936L104.37 74.0735C104.328 74.1134 104.214 74.1882 103.909 74.1882V75.6ZM105.341 75.1039C105.748 74.7334 105.913 74.2338 105.913 73.7082H104.492C104.492 73.9356 104.429 74.0195 104.381 74.0631L105.341 75.1039ZM105.913 73.7082V72.96H104.492V73.7082H105.913ZM105.913 72.96C105.913 72.4376 105.744 71.9455 105.341 71.5784L104.381 72.6192C104.433 72.6663 104.492 72.7483 104.492 72.96H105.913ZM105.352 71.5887C104.958 71.2146 104.438 71.0823 103.909 71.0823V72.4941C104.214 72.4941 104.328 72.5689 104.37 72.6089L105.352 71.5887ZM108.886 79.7647H108.175V80.4706H108.886V79.7647ZM108.886 70.1647V69.4588H108.175V70.1647H108.886ZM114.342 70.9271L113.836 71.4215L113.84 71.4262L114.342 70.9271ZM110.591 76.5176V75.8118H109.88V76.5176H110.591ZM110.591 79.7647V80.4706H111.301V79.7647H110.591ZM110.591 71.7882V71.0823H109.88V71.7882H110.591ZM110.591 74.8941H109.88V75.6H110.591V74.8941ZM113.021 74.5835L112.541 74.0631L112.536 74.0682L112.53 74.0735L113.021 74.5835ZM113.021 72.0988L112.53 72.6089L112.536 72.6141L112.541 72.6192L113.021 72.0988ZM109.596 79.7647V70.1647H108.175V79.7647H109.596ZM108.886 70.8706H112.069V69.4588H108.886V70.8706ZM112.069 70.8706C112.972 70.8706 113.514 71.0963 113.836 71.4215L114.85 70.4326C114.167 69.7413 113.193 69.4588 112.069 69.4588V70.8706ZM113.84 71.4262C114.195 71.7786 114.399 72.2642 114.399 72.96H115.82C115.82 71.9617 115.513 71.0919 114.845 70.4279L113.84 71.4262ZM114.399 72.96V73.7082H115.82V72.96H114.399ZM114.399 73.7082C114.399 74.4037 114.195 74.8971 113.836 75.2607L114.85 76.2498C115.513 75.5781 115.82 74.7069 115.82 73.7082H114.399ZM113.836 75.2607C113.514 75.5859 112.972 75.8118 112.069 75.8118V77.2235C113.193 77.2235 114.167 76.9411 114.85 76.2498L113.836 75.2607ZM112.069 75.8118H110.591V77.2235H112.069V75.8118ZM109.88 76.5176V79.7647H111.301V76.5176H109.88ZM110.591 79.0588H108.886V80.4706H110.591V79.0588ZM112.069 71.0823H110.591V72.4941H112.069V71.0823ZM109.88 71.7882V74.8941H111.301V71.7882H109.88ZM110.591 75.6H112.069V74.1882H110.591V75.6ZM112.069 75.6C112.598 75.6 113.118 75.4678 113.512 75.0936L112.53 74.0735C112.488 74.1134 112.374 74.1882 112.069 74.1882V75.6ZM113.501 75.1039C113.908 74.7334 114.072 74.2338 114.072 73.7082H112.651C112.651 73.9356 112.589 74.0195 112.541 74.0631L113.501 75.1039ZM114.072 73.7082V72.96H112.651V73.7082H114.072ZM114.072 72.96C114.072 72.4376 113.904 71.9455 113.501 71.5784L112.541 72.6192C112.592 72.6663 112.651 72.7483 112.651 72.96H114.072ZM113.512 71.5887C113.118 71.2146 112.598 71.0823 112.069 71.0823V72.4941C112.374 72.4941 112.488 72.5689 112.53 72.6089L113.512 71.5887Z" fill="#E37937"/>
</g>
<path d="M20.6214 64.1188V60.7906H35.1872V64.1188H29.6522V80.4706H26.1564V64.1188H20.6214ZM49.6888 72.2513V73.9878C49.6888 76.0329 49.1256 77.673 47.9992 78.9078C46.8728 80.1426 45.2802 80.76 43.2216 80.76C41.163 80.76 39.5704 80.1426 38.444 78.9078C37.3176 77.673 36.7544 76.0329 36.7544 73.9878V72.2513C36.7544 70.2061 37.3079 68.5758 38.4149 67.3602C39.5413 66.1254 41.1435 65.508 43.2216 65.508C45.2997 65.508 46.8922 66.1254 47.9992 67.3602C49.1256 68.5758 49.6888 70.2061 49.6888 72.2513ZM46.2513 72.2513C46.2513 71.0744 45.9891 70.1579 45.4647 69.5019C44.9403 68.8266 44.1927 68.4889 43.2216 68.4889C42.2505 68.4889 41.5028 68.8266 40.9784 69.5019C40.4541 70.1579 40.1919 71.0744 40.1919 72.2513V73.9878C40.1919 75.1647 40.4541 76.0908 40.9784 76.7661C41.5028 77.4414 42.2505 77.7791 43.2216 77.7791C44.1927 77.7791 44.9403 77.4414 45.4647 76.7661C45.9891 76.0908 46.2513 75.1647 46.2513 73.9878V72.2513Z" fill="#E37937"/>
<path d="M55.3387 80.4706V60.7906H62.039C64.4083 60.7906 66.2145 61.4466 67.4575 62.7586C68.7004 64.0706 69.3219 66 69.3219 68.5468V72.6854C69.3219 75.2515 68.7004 77.1906 67.4575 78.5026C66.2145 79.8146 64.4083 80.4706 62.039 80.4706H55.3387ZM61.8933 64.1188H58.8345V77.1424H61.8933C63.2722 77.1424 64.253 76.8047 64.8356 76.1294C65.4377 75.4541 65.7387 74.3061 65.7387 72.6854V68.5468C65.7387 66.9454 65.4377 65.8071 64.8356 65.1318C64.253 64.4565 63.2722 64.1188 61.8933 64.1188ZM87.0534 72.2513V73.9878C87.0534 76.0329 86.4903 77.673 85.3638 78.9078C84.2374 80.1426 82.6449 80.76 80.5862 80.76C78.5276 80.76 76.9351 80.1426 75.8087 78.9078C74.6823 77.673 74.119 76.0329 74.119 73.9878V72.2513C74.119 70.2061 74.6725 68.5758 75.7795 67.3602C76.906 66.1254 78.5082 65.508 80.5862 65.508C82.6643 65.508 84.2568 66.1254 85.3638 67.3602C86.4903 68.5758 87.0534 70.2061 87.0534 72.2513ZM83.6159 72.2513C83.6159 71.0744 83.3537 70.1579 82.8294 69.5019C82.305 68.8266 81.5573 68.4889 80.5862 68.4889C79.6152 68.4889 78.8675 68.8266 78.3431 69.5019C77.8187 70.1579 77.5565 71.0744 77.5565 72.2513V73.9878C77.5565 75.1647 77.8187 76.0908 78.3431 76.7661C78.8675 77.4414 79.6152 77.7791 80.5862 77.7791C81.5573 77.7791 82.305 77.4414 82.8294 76.7661C83.3537 76.0908 83.6159 75.1647 83.6159 73.9878V72.2513Z" fill="#86CB87"/>
<path d="M118.54 81.8824H20.4869C19.8983 81.8824 19.4211 82.3564 19.4211 82.9412C19.4211 83.526 19.8983 84 20.4869 84H118.54C119.128 84 119.605 83.526 119.605 82.9412C119.605 82.3564 119.128 81.8824 118.54 81.8824Z" fill="#E37937"/>
</svg>
