<svg width="48" height="48" viewBox="0 0 48 48" fill="none" xmlns="http://www.w3.org/2000/svg">
<rect width="48" height="48" fill="white"/>
<mask id="mask0_113_49" style="mask-type:luminance" maskUnits="userSpaceOnUse" x="29" y="23" width="10" height="4">
<path d="M38.6842 23.0588H29.9211V26.8235H38.6842V23.0588Z" fill="white"/>
<path d="M32.4451 26.5882L32.2461 25.9624H31.1425L30.9435 26.5882H30.3798L31.4551 23.3882H31.9572L33.0372 26.5882H32.4451ZM31.4503 24.9835L31.3035 25.4447H32.0803L31.9335 24.9835L31.6967 24.1741L31.4503 24.9835ZM33.5753 26.5882V23.3882H34.6363C34.9743 23.3882 35.2268 23.473 35.3942 23.6424C35.5648 23.8118 35.65 24.0377 35.65 24.32V24.5694C35.65 24.8518 35.5648 25.0792 35.3942 25.2518C35.2268 25.4212 34.9743 25.5059 34.6363 25.5059H34.1437V26.5882H33.5753ZM34.6363 23.9294H34.1437V24.9647H34.6363C34.7754 24.9647 34.881 24.9302 34.9537 24.8612C35.0295 24.7922 35.0674 24.6949 35.0674 24.5694V24.32C35.0674 24.1977 35.0295 24.102 34.9537 24.033C34.881 23.9639 34.7754 23.9294 34.6363 23.9294ZM36.2952 26.5882V23.3882H37.3562C37.6942 23.3882 37.9469 23.473 38.1141 23.6424C38.2847 23.8118 38.3699 24.0377 38.3699 24.32V24.5694C38.3699 24.8518 38.2847 25.0792 38.1141 25.2518C37.9469 25.4212 37.6942 25.5059 37.3562 25.5059H36.8636V26.5882H36.2952ZM37.3562 23.9294H36.8636V24.9647H37.3562C37.4953 24.9647 37.6011 24.9302 37.6736 24.8612C37.7494 24.7922 37.7873 24.6949 37.7873 24.5694V24.32C37.7873 24.1977 37.7494 24.102 37.6736 24.033C37.6011 23.9639 37.4953 23.9294 37.3562 23.9294Z" fill="black"/>
</mask>
<g mask="url(#mask0_113_49)">
<path d="M32.4451 26.5882L32.2194 26.6591L32.2715 26.8235H32.4451V26.5882ZM32.2461 25.9624L32.4721 25.8915L32.4197 25.7271H32.2461V25.9624ZM31.1425 25.9624V25.7271H30.9688L30.9167 25.8915L31.1425 25.9624ZM30.9435 26.5882V26.8235H31.1171L31.1695 26.6591L30.9435 26.5882ZM30.3798 26.5882L30.1553 26.5138L30.0511 26.8235H30.3798V26.5882ZM31.4551 23.3882V23.153H31.2846L31.2306 23.3138L31.4551 23.3882ZM31.9572 23.3882L32.1817 23.3134L32.1277 23.153H31.9572V23.3882ZM33.0372 26.5882V26.8235H33.3664L33.2617 26.5134L33.0372 26.5882ZM31.4503 24.9835L31.6763 25.0545L31.677 25.0516L31.4503 24.9835ZM31.3035 25.4447L31.0778 25.3738L30.9802 25.68H31.3035V25.4447ZM32.0803 25.4447V25.68H32.4036L32.3063 25.3738L32.0803 25.4447ZM31.9335 24.9835L31.7061 25.0492L31.7068 25.0519L31.7078 25.0545L31.9335 24.9835ZM31.6967 24.1741L31.924 24.1085L31.7012 23.3464L31.47 24.106L31.6967 24.1741ZM32.671 26.5174L32.4721 25.8915L32.0204 26.0332L32.2194 26.6591L32.671 26.5174ZM32.2461 25.7271H31.1425V26.1977H32.2461V25.7271ZM30.9167 25.8915L30.7178 26.5174L31.1695 26.6591L31.3684 26.0332L30.9167 25.8915ZM30.9435 26.353H30.3798V26.8235H30.9435V26.353ZM30.6046 26.6627L31.6798 23.4627L31.2306 23.3138L30.1553 26.5138L30.6046 26.6627ZM31.4551 23.6235H31.9572V23.153H31.4551V23.6235ZM31.7327 23.463L32.8127 26.663L33.2617 26.5134L32.1817 23.3134L31.7327 23.463ZM33.0372 26.353H32.4451V26.8235H33.0372V26.353ZM31.2246 24.9126L31.0778 25.3738L31.5295 25.5157L31.6763 25.0545L31.2246 24.9126ZM31.3035 25.68H32.0803V25.2094H31.3035V25.68ZM32.3063 25.3738L32.1595 24.9126L31.7078 25.0545L31.8546 25.5157L32.3063 25.3738ZM32.1609 24.9179L31.924 24.1085L31.4693 24.2398L31.7061 25.0492L32.1609 24.9179ZM31.47 24.106L31.2237 24.9154L31.677 25.0516L31.9233 24.2422L31.47 24.106ZM33.5753 26.5882H33.3385V26.8235H33.5753V26.5882ZM33.5753 23.3882V23.153H33.3385V23.3882H33.5753ZM35.3942 23.6424L35.2251 23.8072L35.2268 23.8087L35.3942 23.6424ZM34.1437 25.5059V25.2706H33.9069V25.5059H34.1437ZM34.1437 26.5882V26.8235H34.3806V26.5882H34.1437ZM34.1437 23.9294V23.6941H33.9069V23.9294H34.1437ZM34.1437 24.9647H33.9069V25.2H34.1437V24.9647ZM34.9537 24.8612L34.7936 24.6877L34.7917 24.6894L34.7901 24.6912L34.9537 24.8612ZM34.9537 24.033L34.7901 24.203L34.7917 24.2047L34.7936 24.2064L34.9537 24.033ZM33.8121 26.5882V23.3882H33.3385V26.5882H33.8121ZM33.5753 23.6235H34.6363V23.153H33.5753V23.6235ZM34.6363 23.6235C34.9374 23.6235 35.1181 23.6988 35.2251 23.8072L35.5633 23.4775C35.3355 23.2471 35.011 23.153 34.6363 23.153V23.6235ZM35.2268 23.8087C35.345 23.9262 35.4132 24.0881 35.4132 24.32H35.8869C35.8869 23.9872 35.7846 23.6973 35.5617 23.476L35.2268 23.8087ZM35.4132 24.32V24.5694H35.8869V24.32H35.4132ZM35.4132 24.5694C35.4132 24.8012 35.345 24.9657 35.2251 25.0869L35.5631 25.4166C35.7846 25.1927 35.8869 24.9023 35.8869 24.5694H35.4132ZM35.2251 25.0869C35.1181 25.1953 34.9374 25.2706 34.6363 25.2706V25.7412C35.011 25.7412 35.3355 25.647 35.5633 25.4166L35.2251 25.0869ZM34.6363 25.2706H34.1437V25.7412H34.6363V25.2706ZM33.9069 25.5059V26.5882H34.3806V25.5059H33.9069ZM34.1437 26.353H33.5753V26.8235H34.1437V26.353ZM34.6363 23.6941H34.1437V24.1647H34.6363V23.6941ZM33.9069 23.9294V24.9647H34.3806V23.9294H33.9069ZM34.1437 25.2H34.6363V24.7294H34.1437V25.2ZM34.6363 25.2C34.8126 25.2 34.9862 25.1559 35.1174 25.0312L34.7901 24.6912C34.7758 24.7045 34.738 24.7294 34.6363 24.7294V25.2ZM35.1138 25.0346C35.2493 24.9111 35.3042 24.7446 35.3042 24.5694H34.8306C34.8306 24.6452 34.8097 24.6732 34.7936 24.6877L35.1138 25.0346ZM35.3042 24.5694V24.32H34.8306V24.5694H35.3042ZM35.3042 24.32C35.3042 24.1459 35.2481 23.9818 35.1138 23.8595L34.7936 24.2064C34.8109 24.2221 34.8306 24.2494 34.8306 24.32H35.3042ZM35.1174 23.8629C34.9862 23.7382 34.8126 23.6941 34.6363 23.6941V24.1647C34.738 24.1647 34.7758 24.1897 34.7901 24.203L35.1174 23.8629ZM36.2952 26.5882H36.0583V26.8235H36.2952V26.5882ZM36.2952 23.3882V23.153H36.0583V23.3882H36.2952ZM38.1141 23.6424L37.9453 23.8072L37.9467 23.8087L38.1141 23.6424ZM36.8636 25.5059V25.2706H36.6268V25.5059H36.8636ZM36.8636 26.5882V26.8235H37.1005V26.5882H36.8636ZM36.8636 23.9294V23.6941H36.6268V23.9294H36.8636ZM36.8636 24.9647H36.6268V25.2H36.8636V24.9647ZM37.6736 24.8612L37.5137 24.6877L37.5118 24.6894L37.51 24.6912L37.6736 24.8612ZM37.6736 24.033L37.51 24.203L37.5118 24.2047L37.5137 24.2064L37.6736 24.033ZM36.532 26.5882V23.3882H36.0583V26.5882H36.532ZM36.2952 23.6235H37.3562V23.153H36.2952V23.6235ZM37.3562 23.6235C37.6573 23.6235 37.838 23.6988 37.9453 23.8072L38.2832 23.4775C38.0556 23.2471 37.7312 23.153 37.3562 23.153V23.6235ZM37.9467 23.8087C38.0649 23.9262 38.1331 24.0881 38.1331 24.32H38.6068C38.6068 23.9872 38.5045 23.6973 38.2816 23.476L37.9467 23.8087ZM38.1331 24.32V24.5694H38.6068V24.32H38.1331ZM38.1331 24.5694C38.1331 24.8012 38.0649 24.9657 37.9453 25.0869L38.2832 25.4166C38.5045 25.1927 38.6068 24.9023 38.6068 24.5694H38.1331ZM37.9453 25.0869C37.838 25.1953 37.6573 25.2706 37.3562 25.2706V25.7412C37.7312 25.7412 38.0556 25.647 38.2832 25.4166L37.9453 25.0869ZM37.3562 25.2706H36.8636V25.7412H37.3562V25.2706ZM36.6268 25.5059V26.5882H37.1005V25.5059H36.6268ZM36.8636 26.353H36.2952V26.8235H36.8636V26.353ZM37.3562 23.6941H36.8636V24.1647H37.3562V23.6941ZM36.6268 23.9294V24.9647H37.1005V23.9294H36.6268ZM36.8636 25.2H37.3562V24.7294H36.8636V25.2ZM37.3562 25.2C37.5327 25.2 37.7061 25.1559 37.8373 25.0312L37.51 24.6912C37.496 24.7045 37.4578 24.7294 37.3562 24.7294V25.2ZM37.8337 25.0346C37.9694 24.9111 38.0241 24.7446 38.0241 24.5694H37.5505C37.5505 24.6452 37.5296 24.6732 37.5137 24.6877L37.8337 25.0346ZM38.0241 24.5694V24.32H37.5505V24.5694H38.0241ZM38.0241 24.32C38.0241 24.1459 37.968 23.9818 37.8337 23.8595L37.5137 24.2064C37.5308 24.2221 37.5505 24.2494 37.5505 24.32H38.0241ZM37.8373 23.8629C37.7061 23.7382 37.5327 23.6941 37.3562 23.6941V24.1647C37.4578 24.1647 37.496 24.1897 37.51 24.203L37.8373 23.8629Z" fill="#E37937"/>
</g>
<path d="M6.87378 21.3729V20.2635H11.729V21.3729H9.88403V26.8235H8.71877V21.3729H6.87378ZM16.5629 24.0838V24.6626C16.5629 25.3443 16.3752 25.891 15.9997 26.3026C15.6242 26.7142 15.0934 26.92 14.4072 26.92C13.721 26.92 13.1901 26.7142 12.8146 26.3026C12.4392 25.891 12.2514 25.3443 12.2514 24.6626V24.0838C12.2514 23.4021 12.4359 22.8586 12.8049 22.4534C13.1804 22.0418 13.7145 21.836 14.4072 21.836C15.0999 21.836 15.6307 22.0418 15.9997 22.4534C16.3752 22.8586 16.5629 23.4021 16.5629 24.0838ZM15.4171 24.0838C15.4171 23.6915 15.3297 23.386 15.1549 23.1673C14.9801 22.9422 14.7309 22.8297 14.4072 22.8297C14.0835 22.8297 13.8343 22.9422 13.6595 23.1673C13.4847 23.386 13.3973 23.6915 13.3973 24.0838V24.6626C13.3973 25.0549 13.4847 25.3636 13.6595 25.5887C13.8343 25.8138 14.0835 25.9264 14.4072 25.9264C14.7309 25.9264 14.9801 25.8138 15.1549 25.5887C15.3297 25.3636 15.4171 25.0549 15.4171 24.6626V24.0838Z" fill="#E37937"/>
<path d="M18.4462 26.8235V20.2635H20.6796C21.4694 20.2635 22.0715 20.4822 22.4858 20.9195C22.9001 21.3569 23.1073 22 23.1073 22.8489V24.2285C23.1073 25.0838 22.9001 25.7302 22.4858 26.1675C22.0715 26.6049 21.4694 26.8235 20.6796 26.8235H18.4462ZM20.6311 21.3729H19.6115V25.7141H20.6311C21.0907 25.7141 21.4176 25.6016 21.6119 25.3765C21.8125 25.1514 21.9129 24.7687 21.9129 24.2285V22.8489C21.9129 22.3151 21.8125 21.9357 21.6119 21.7106C21.4176 21.4855 21.0907 21.3729 20.6311 21.3729ZM29.0178 24.0838V24.6626C29.0178 25.3443 28.8301 25.891 28.4546 26.3026C28.0791 26.7142 27.5483 26.92 26.8621 26.92C26.1759 26.92 25.645 26.7142 25.2695 26.3026C24.8941 25.891 24.7063 25.3443 24.7063 24.6626V24.0838C24.7063 23.4021 24.8908 22.8586 25.2598 22.4534C25.6353 22.0418 26.1694 21.836 26.8621 21.836C27.5547 21.836 28.0856 22.0418 28.4546 22.4534C28.8301 22.8586 29.0178 23.4021 29.0178 24.0838ZM27.872 24.0838C27.872 23.6915 27.7846 23.386 27.6098 23.1673C27.435 22.9422 27.1857 22.8297 26.8621 22.8297C26.5384 22.8297 26.2891 22.9422 26.1143 23.1673C25.9396 23.386 25.8522 23.6915 25.8522 24.0838V24.6626C25.8522 25.0549 25.9396 25.3636 26.1143 25.5887C26.2891 25.8138 26.5384 25.9264 26.8621 25.9264C27.1857 25.9264 27.435 25.8138 27.6098 25.5887C27.7846 25.3636 27.872 25.0549 27.872 24.6626V24.0838Z" fill="#86CB87"/>
<path d="M39.5132 27.2941H6.82896C6.63275 27.2941 6.47369 27.4521 6.47369 27.6471C6.47369 27.842 6.63275 28 6.82896 28H39.5132C39.7094 28 39.8684 27.842 39.8684 27.6471C39.8684 27.4521 39.7094 27.2941 39.5132 27.2941Z" fill="#E37937"/>
</svg>
