<svg width="18" height="21" viewBox="0 0 18 21" fill="none" xmlns="http://www.w3.org/2000/svg">
<path d="M16.6008 7.94488C17.1219 7.94488 17.5493 8.3462 17.5907 8.85663L17.594 8.93809V17.0257C17.594 18.7861 16.2001 20.2209 14.4558 20.2867L14.3306 20.2891H3.2634C1.50299 20.2891 0.0681417 18.8951 0.00235663 17.1508L0 17.0257V8.93809C0 8.38955 0.444675 7.94488 0.993209 7.94488C1.51432 7.94488 1.94169 8.3462 1.98313 8.85663L1.98642 8.93809V17.0257C1.98642 17.7015 2.51149 18.2548 3.17597 18.2997L3.2634 18.3026H14.3306C15.0065 18.3026 15.5597 17.7776 15.6046 17.1131L15.6076 17.0257V8.93809C15.6076 8.38955 16.0523 7.94488 16.6008 7.94488ZM8.5126 0.00935209L8.5971 0.000894426L8.69626 0L8.78395 0.00738328L8.88492 0.025694L8.92407 0.036052C9.03493 0.0666539 9.14145 0.11714 9.2382 0.187213L9.30603 0.241143L9.35877 0.290109L13.7733 4.7046C14.1611 5.09247 14.1611 5.72134 13.7733 6.10921C13.4082 6.47426 12.8297 6.49574 12.4395 6.17363L12.3687 6.10921L9.64832 3.3886V14.3298C9.64832 14.8509 9.247 15.2783 8.73657 15.3197L8.65511 15.323C8.134 15.323 7.70663 14.9217 7.66519 14.4113L7.6619 14.3298V3.39087L4.94428 6.10921C4.57923 6.47426 4.00069 6.49574 3.61052 6.17363L3.53967 6.10921C3.17462 5.74415 3.15314 5.16562 3.47525 4.77545L3.53967 4.7046L7.93932 0.303856C7.97103 0.270898 8.005 0.240125 8.04097 0.211785L8.10529 0.165946C8.1267 0.150876 8.14909 0.137189 8.17205 0.124385L8.18272 0.119176C8.28322 0.0640307 8.39456 0.0263127 8.5126 0.00935209Z" fill="#E37937"/>
</svg>
