<svg width="152" height="34" viewBox="0 0 152 34" fill="none" xmlns="http://www.w3.org/2000/svg">
<mask id="path-1-outside-1_1_36" maskUnits="userSpaceOnUse" x="101" y="13" width="37" height="16" fill="black">
<rect fill="white" x="101" y="13" width="37" height="16"/>
<path d="M111.657 28L110.817 25.34H106.157L105.317 28H102.937L107.477 14.4H109.597L114.157 28H111.657ZM107.457 21.18L106.837 23.14H110.117L109.497 21.18L108.497 17.74L107.457 21.18ZM116.429 28V14.4H120.909C122.336 14.4 123.402 14.76 124.109 15.48C124.829 16.2 125.189 17.16 125.189 18.36V19.42C125.189 20.62 124.829 21.5867 124.109 22.32C123.402 23.04 122.336 23.4 120.909 23.4H118.829V28H116.429ZM120.909 16.7H118.829V21.1H120.909C121.496 21.1 121.942 20.9533 122.249 20.66C122.569 20.3667 122.729 19.9533 122.729 19.42V18.36C122.729 17.84 122.569 17.4333 122.249 17.14C121.942 16.8467 121.496 16.7 120.909 16.7ZM127.913 28V14.4H132.393C133.82 14.4 134.887 14.76 135.593 15.48C136.313 16.2 136.673 17.16 136.673 18.36V19.42C136.673 20.62 136.313 21.5867 135.593 22.32C134.887 23.04 133.82 23.4 132.393 23.4H130.313V28H127.913ZM132.393 16.7H130.313V21.1H132.393C132.98 21.1 133.427 20.9533 133.733 20.66C134.053 20.3667 134.213 19.9533 134.213 19.42V18.36C134.213 17.84 134.053 17.4333 133.733 17.14C133.427 16.8467 132.98 16.7 132.393 16.7Z"/>
</mask>
<path d="M111.657 28L110.704 28.3011L110.924 29H111.657V28ZM110.817 25.34L111.771 25.0389L111.55 24.34H110.817V25.34ZM106.157 25.34V24.34H105.424L105.204 25.0389L106.157 25.34ZM105.317 28V29H106.05L106.271 28.3011L105.317 28ZM102.937 28L101.989 27.6834L101.549 29H102.937V28ZM107.477 14.4V13.4H106.757L106.529 14.0834L107.477 14.4ZM109.597 14.4L110.545 14.0821L110.317 13.4H109.597V14.4ZM114.157 28V29H115.547L115.105 27.6821L114.157 28ZM107.457 21.18L108.411 21.4816L108.414 21.4694L107.457 21.18ZM106.837 23.14L105.884 22.8384L105.472 24.14H106.837V23.14ZM110.117 23.14V24.14H111.482L111.071 22.8384L110.117 23.14ZM109.497 21.18L108.537 21.4591L108.54 21.4704L108.544 21.4816L109.497 21.18ZM108.497 17.74L109.457 17.4609L108.516 14.2223L107.54 17.4506L108.497 17.74ZM112.611 27.6989L111.771 25.0389L109.864 25.6411L110.704 28.3011L112.611 27.6989ZM110.817 24.34H106.157V26.34H110.817V24.34ZM105.204 25.0389L104.364 27.6989L106.271 28.3011L107.111 25.6411L105.204 25.0389ZM105.317 27H102.937V29H105.317V27ZM103.886 28.3166L108.426 14.7166L106.529 14.0834L101.989 27.6834L103.886 28.3166ZM107.477 15.4H109.597V13.4H107.477V15.4ZM108.649 14.7179L113.209 28.3179L115.105 27.6821L110.545 14.0821L108.649 14.7179ZM114.157 27H111.657V29H114.157V27ZM106.504 20.8784L105.884 22.8384L107.791 23.4416L108.411 21.4816L106.504 20.8784ZM106.837 24.14H110.117V22.14H106.837V24.14ZM111.071 22.8384L110.451 20.8784L108.544 21.4816L109.164 23.4416L111.071 22.8384ZM110.457 20.9009L109.457 17.4609L107.537 18.0191L108.537 21.4591L110.457 20.9009ZM107.54 17.4506L106.5 20.8906L108.414 21.4694L109.454 18.0294L107.54 17.4506ZM116.429 28H115.429V29H116.429V28ZM116.429 14.4V13.4H115.429V14.4H116.429ZM124.109 15.48L123.395 16.1805L123.402 16.1871L124.109 15.48ZM124.109 22.32L123.395 21.6194L123.395 21.6195L124.109 22.32ZM118.829 23.4V22.4H117.829V23.4H118.829ZM118.829 28V29H119.829V28H118.829ZM118.829 16.7V15.7H117.829V16.7H118.829ZM118.829 21.1H117.829V22.1H118.829V21.1ZM122.249 20.66L121.573 19.9228L121.565 19.93L121.558 19.9374L122.249 20.66ZM122.249 17.14L121.558 17.8626L121.565 17.87L121.573 17.8772L122.249 17.14ZM117.429 28V14.4H115.429V28H117.429ZM116.429 15.4H120.909V13.4H116.429V15.4ZM120.909 15.4C122.18 15.4 122.943 15.7198 123.395 16.1805L124.823 14.7795C123.861 13.8002 122.491 13.4 120.909 13.4V15.4ZM123.402 16.1871C123.901 16.6864 124.189 17.3743 124.189 18.36H126.189C126.189 16.9457 125.757 15.7136 124.816 14.7729L123.402 16.1871ZM124.189 18.36V19.42H126.189V18.36H124.189ZM124.189 19.42C124.189 20.4052 123.901 21.1043 123.395 21.6194L124.822 23.0206C125.757 22.069 126.189 20.8348 126.189 19.42H124.189ZM123.395 21.6195C122.943 22.0802 122.18 22.4 120.909 22.4V24.4C122.491 24.4 123.861 23.9998 124.823 23.0205L123.395 21.6195ZM120.909 22.4H118.829V24.4H120.909V22.4ZM117.829 23.4V28H119.829V23.4H117.829ZM118.829 27H116.429V29H118.829V27ZM120.909 15.7H118.829V17.7H120.909V15.7ZM117.829 16.7V21.1H119.829V16.7H117.829ZM118.829 22.1H120.909V20.1H118.829V22.1ZM120.909 22.1C121.653 22.1 122.386 21.9127 122.94 21.3826L121.558 19.9374C121.498 19.994 121.338 20.1 120.909 20.1V22.1ZM122.925 21.3972C123.497 20.8723 123.729 20.1646 123.729 19.42H121.729C121.729 19.7421 121.641 19.861 121.573 19.9228L122.925 21.3972ZM123.729 19.42V18.36H121.729V19.42H123.729ZM123.729 18.36C123.729 17.6199 123.492 16.9228 122.925 16.4028L121.573 17.8772C121.646 17.9439 121.729 18.0601 121.729 18.36H123.729ZM122.94 16.4174C122.386 15.8873 121.653 15.7 120.909 15.7V17.7C121.338 17.7 121.498 17.806 121.558 17.8626L122.94 16.4174ZM127.913 28H126.913V29H127.913V28ZM127.913 14.4V13.4H126.913V14.4H127.913ZM135.593 15.48L134.88 16.1805L134.886 16.1871L135.593 15.48ZM135.593 22.32L134.88 21.6194L134.88 21.6195L135.593 22.32ZM130.313 23.4V22.4H129.313V23.4H130.313ZM130.313 28V29H131.313V28H130.313ZM130.313 16.7V15.7H129.313V16.7H130.313ZM130.313 21.1H129.313V22.1H130.313V21.1ZM133.733 20.66L133.058 19.9228L133.05 19.93L133.042 19.9374L133.733 20.66ZM133.733 17.14L133.042 17.8626L133.05 17.87L133.058 17.8772L133.733 17.14ZM128.913 28V14.4H126.913V28H128.913ZM127.913 15.4H132.393V13.4H127.913V15.4ZM132.393 15.4C133.664 15.4 134.427 15.7198 134.88 16.1805L136.307 14.7795C135.346 13.8002 133.976 13.4 132.393 13.4V15.4ZM134.886 16.1871C135.385 16.6864 135.673 17.3743 135.673 18.36H137.673C137.673 16.9457 137.241 15.7136 136.3 14.7729L134.886 16.1871ZM135.673 18.36V19.42H137.673V18.36H135.673ZM135.673 19.42C135.673 20.4052 135.385 21.1043 134.88 21.6194L136.307 23.0206C137.241 22.069 137.673 20.8348 137.673 19.42H135.673ZM134.88 21.6195C134.427 22.0802 133.664 22.4 132.393 22.4V24.4C133.976 24.4 135.346 23.9998 136.307 23.0205L134.88 21.6195ZM132.393 22.4H130.313V24.4H132.393V22.4ZM129.313 23.4V28H131.313V23.4H129.313ZM130.313 27H127.913V29H130.313V27ZM132.393 15.7H130.313V17.7H132.393V15.7ZM129.313 16.7V21.1H131.313V16.7H129.313ZM130.313 22.1H132.393V20.1H130.313V22.1ZM132.393 22.1C133.138 22.1 133.87 21.9127 134.424 21.3826L133.042 19.9374C132.983 19.994 132.822 20.1 132.393 20.1V22.1ZM134.409 21.3972C134.982 20.8723 135.213 20.1646 135.213 19.42H133.213C133.213 19.7421 133.125 19.861 133.058 19.9228L134.409 21.3972ZM135.213 19.42V18.36H133.213V19.42H135.213ZM135.213 18.36C135.213 17.6199 134.976 16.9228 134.409 16.4028L133.058 17.8772C133.13 17.9439 133.213 18.0601 133.213 18.36H135.213ZM134.424 16.4174C133.87 15.8873 133.138 15.7 132.393 15.7V17.7C132.822 17.7 132.983 17.806 133.042 17.8626L134.424 16.4174Z" fill="#E37937" mask="url(#path-1-outside-1_1_36)"/>
<path d="M3.68934 5.835V1.12H24.1893V5.835H16.3993V29H11.4793V5.835H3.68934ZM44.599 17.356V19.816C44.599 22.7133 43.8063 25.0367 42.221 26.786C40.6357 28.5353 38.3943 29.41 35.497 29.41C32.5997 29.41 30.3583 28.5353 28.773 26.786C27.1877 25.0367 26.395 22.7133 26.395 19.816V17.356C26.395 14.4587 27.174 12.149 28.732 10.427C30.3173 8.67767 32.5723 7.803 35.497 7.803C38.4217 7.803 40.663 8.67767 42.221 10.427C43.8063 12.149 44.599 14.4587 44.599 17.356ZM39.761 17.356C39.761 15.6887 39.392 14.3903 38.654 13.461C37.916 12.5043 36.8637 12.026 35.497 12.026C34.1303 12.026 33.078 12.5043 32.34 13.461C31.602 14.3903 31.233 15.6887 31.233 17.356V19.816C31.233 21.4833 31.602 22.7953 32.34 23.752C33.078 24.7087 34.1303 25.187 35.497 25.187C36.8637 25.187 37.916 24.7087 38.654 23.752C39.392 22.7953 39.761 21.4833 39.761 19.816V17.356Z" fill="#E37937"/>
<path d="M52.5508 29V1.12H61.9808C65.3154 1.12 67.8574 2.04933 69.6068 3.908C71.3561 5.76667 72.2308 8.5 72.2308 12.108V17.971C72.2308 21.6063 71.3561 24.3533 69.6068 26.212C67.8574 28.0707 65.3154 29 61.9808 29H52.5508ZM61.7758 5.835H57.4708V24.285H61.7758C63.7164 24.285 65.0968 23.8067 65.9168 22.85C66.7641 21.8933 67.1878 20.267 67.1878 17.971V12.108C67.1878 9.83933 66.7641 8.22667 65.9168 7.27C65.0968 6.31333 63.7164 5.835 61.7758 5.835ZM97.1863 17.356V19.816C97.1863 22.7133 96.3937 25.0367 94.8083 26.786C93.223 28.5353 90.9817 29.41 88.0843 29.41C85.187 29.41 82.9457 28.5353 81.3603 26.786C79.775 25.0367 78.9823 22.7133 78.9823 19.816V17.356C78.9823 14.4587 79.7613 12.149 81.3193 10.427C82.9047 8.67767 85.1597 7.803 88.0843 7.803C91.009 7.803 93.2503 8.67767 94.8083 10.427C96.3937 12.149 97.1863 14.4587 97.1863 17.356ZM92.3483 17.356C92.3483 15.6887 91.9793 14.3903 91.2413 13.461C90.5033 12.5043 89.451 12.026 88.0843 12.026C86.7177 12.026 85.6653 12.5043 84.9273 13.461C84.1893 14.3903 83.8203 15.6887 83.8203 17.356V19.816C83.8203 21.4833 84.1893 22.7953 84.9273 23.752C85.6653 24.7087 86.7177 25.187 88.0843 25.187C89.451 25.187 90.5033 24.7087 91.2413 23.752C91.9793 22.7953 92.3483 21.4833 92.3483 19.816V17.356Z" fill="#86CB87"/>
<rect x="2" y="31" width="141" height="3" rx="1.5" fill="#E37937"/>
</svg>
